{"title":"James Bond 007 Thunderball 1965 720p BluRay x264 HANGOVER","uid":6149896,"size":8498780386,"categoryP":"video","categoryS":"hd___movies","magnet":"?xt=urn:btih:033e04b9757b3042f64748dbceb3721d01cf46d8&amp;dn=James+Bond+007+Thunderball+1965+720p+BluRay+x264+HANGOVER&amp;tr=udp%3A%2F%2Ftracker.openbittorrent.com%3A80&amp;tr=udp%3A%2F%2Fopen.demonii.com%3A1337&amp;tr=udp%3A%2F%2Ftracker.coppersurfer.tk%3A6969&amp;tr=udp%3A%2F%2Fexodus.desync.com%3A6969","seeders":3,"leechers":0,"uploader":"bobnjeff","files":1,"time":1296843846,"description":"Genre: Action | Adventure | Thriller\nIMDB rating: 7.0/10   (25,244 votes)\nDirected by: Terence Young\nStarring: Sean Connery, Claudine Auger, Adolfo Celi\n\n\nStoryline\nJames Bond continues on his fourth mission, with his aim to recover two stolen warheads. They have been taken by the evil SPECTRE organisation. The world is held hostage and Bond heads to Nassau. Here, he meets the beautiful Domino and is forced into a thrilling confrontation with SPECTRE agent Emilio Largo, on board his boat, the Disco Volante. Will 007 prevent the killing of millions of innocent victims? Written by simon_hrdng   \n\n\nGeneral\nComplete name                    : James.Bond.007.Thunderball.1965.720p.BluRay.x264-HANGOVER.mkv\nFormat                           : Matroska\nFile size                        : 6.56 GiB\nDuration                         : 2h 10mn\nOverall bit rate                 : 7 206 Kbps\nEncoded date                     : UTC 2008-10-16 11:13:04\nWriting application              : mkvmerge v2.3.0 ('Freak U') built on Sep  8 2008 18:32:16\nWriting library                  : libebml v0.7.7 + libmatroska v0.8.1\n\nVideo\nID                               : 1\nFormat                           : AVC\nFormat/Info                      : Advanced Video Codec\nFormat profile                   : &lt;a class=&quot;__cf_email__&quot; href=&quot;/cdn-cgi/l/email-protection&quot; data-cfemail=&quot;c78faea0af878bf4e9f6&quot;&gt;[email&amp;#160;protected]&lt;/a&gt;&lt;script cf-hash='f9e31' type=&quot;text/javascript&quot;&gt;\n/* &lt;![CDATA[ */!function(){try{var t=&quot;currentScript&quot;in document?document.currentScript:function(){for(var t=document.getElementsByTagName(&quot;script&quot;),e=t.length;e--;)if(t[e].getAttribute(&quot;cf-hash&quot;))return t[e]}();if(t&amp;&amp;t.previousSibling){var e,r,n,i,c=t.previousSibling,a=c.getAttribute(&quot;data-cfemail&quot;);if(a){for(e=&quot;&quot;,r=parseInt(a.substr(0,2),16),n=2;a.length-n;n+=2)i=parseInt(a.substr(n,2),16)^r,e+=String.fromCharCode(i);e=document.createTextNode(e),c.parentNode.replaceChild(e,c)}}}catch(u){}}();/* ]]&gt; */&lt;/script&gt;\nFormat settings, CABAC           : Yes\nFormat settings, ReFrames        : 5 frames\nMuxing mode                      : Container profile=&lt;a class=&quot;__cf_email__&quot; href=&quot;/cdn-cgi/l/email-protection&quot; data-cfemail=&quot;8bdee5e0e5e4fce5cbb8a5ba&quot;&gt;[email&amp;#160;protected]&lt;/a&gt;&lt;script cf-hash='f9e31' type=&quot;text/javascript&quot;&gt;\n/* &lt;![CDATA[ */!function(){try{var t=&quot;currentScript&quot;in document?document.currentScript:function(){for(var t=document.getElementsByTagName(&quot;script&quot;),e=t.length;e--;)if(t[e].getAttribute(&quot;cf-hash&quot;))return t[e]}();if(t&amp;&amp;t.previousSibling){var e,r,n,i,c=t.previousSibling,a=c.getAttribute(&quot;data-cfemail&quot;);if(a){for(e=&quot;&quot;,r=parseInt(a.substr(0,2),16),n=2;a.length-n;n+=2)i=parseInt(a.substr(n,2),16)^r,e+=String.fromCharCode(i);e=document.createTextNode(e),c.parentNode.replaceChild(e,c)}}}catch(u){}}();/* ]]&gt; */&lt;/script&gt;\nCodec ID                         : V_MPEG4/ISO/AVC\nDuration                         : 2h 10mn\nBit rate                         : 5 552 Kbps\nNominal bit rate                 : 5 692 Kbps\nWidth                            : 1 280 pixels\nHeight                           : 544 pixels\nDisplay aspect ratio             : 2.35:1\nFrame rate                       : 23.976 fps\nResolution                       : 24 bits\nColorimetry                      : 4:2:0\nScan type                        : Progressive\nBits/(Pixel*Frame)               : 0.333\nStream size                      : 5.05 GiB (77%)\nWriting library                  : x264 core 65 r998M 6768543\nLanguage                         : English\n\nAudio\nID                               : 2\nFormat                           : DTS\nFormat/Info                      : Digital Theater Systems\nCodec ID                         : A_DTS\nDuration                         : 2h 10mn\nBit rate mode                    : Constant\nBit rate                         : 1 510 Kbps\nChannel(s)                       : 6 channels\nChannel positions                : Front: L C R, Surround: L R, LFE\nSampling rate                    : 48.0 KHz\nResolution                       : 24 bits\nStream size                      : 1.38 GiB (21%)\nLanguage                         : English\n\n &lt;a href=&quot;\nhttp://www.imagebam.com/image/a9196e118109128&quot; rel=&quot;nofollow&quot; target=&quot;_NEW&quot;&gt;\nhttp://www.imagebam.com/image/a9196e118109128&lt;/a&gt;\n &lt;a href=&quot;\nhttp://www.imagebam.com/image/986fa0118109119&quot; rel=&quot;nofollow&quot; target=&quot;_NEW&quot;&gt;\nhttp://www.imagebam.com/image/986fa0118109119&lt;/a&gt;\n &lt;a href=&quot;\nhttp://www.imagebam.com/image/dabee7118109114&quot; rel=&quot;nofollow&quot; target=&quot;_NEW&quot;&gt;\nhttp://www.imagebam.com/image/dabee7118109114&lt;/a&gt;","torrent":{"xt":"urn:btih:033e04b9757b3042f64748dbceb3721d01cf46d8","amp;dn":"James+Bond+007+Thunderball+1965+720p+BluRay+x264+HANGOVER","amp;tr":["udp%3A%2F%2Ftracker.openbittorrent.com%3A80","udp%3A%2F%2Fopen.demonii.com%3A1337","udp%3A%2F%2Ftracker.coppersurfer.tk%3A6969","udp%3A%2F%2Fexodus.desync.com%3A6969"],"infoHash":"033e04b9757b3042f64748dbceb3721d01cf46d8","infoHashBuffer":{"type":"Buffer","data":[3,62,4,185,117,123,48,66,246,71,72,219,206,179,114,29,1,207,70,216]},"announce":[],"urlList":[]}}